<mxfile host="app.diagrams.net" modified="2023-11-27T23:51:48.097Z" agent="Mozilla/5.0 (Windows NT 10.0; Win64; x64) AppleWebKit/537.36 (KHTML, like Gecko) Chrome/119.0.0.0 Safari/537.36 Edg/119.0.0.0" etag="hvfrsdc9bEytbp-sQ60r" version="22.1.4" type="github">
  <diagram name="Page-1" id="2NRRfvhTTOZam8xosMUW">
    <mxGraphModel dx="1170" dy="815" grid="1" gridSize="10" guides="1" tooltips="1" connect="1" arrows="1" fold="1" page="1" pageScale="1" pageWidth="850" pageHeight="1100" math="0" shadow="0">
      <root>
        <mxCell id="0" />
        <mxCell id="1" parent="0" />
        <mxCell id="O6ehG71UC0-qLoCqbw2K-1" value="" style="ellipse;whiteSpace=wrap;html=1;aspect=fixed;fillColor=#0d0d0d;" vertex="1" parent="1">
          <mxGeometry x="20" y="220" width="37" height="40" as="geometry" />
        </mxCell>
        <mxCell id="O6ehG71UC0-qLoCqbw2K-2" value="Initial psuedostate" style="shape=note;whiteSpace=wrap;html=1;backgroundOutline=1;darkOpacity=0.05;" vertex="1" parent="1">
          <mxGeometry y="340" width="87" height="60" as="geometry" />
        </mxCell>
        <mxCell id="O6ehG71UC0-qLoCqbw2K-3" value="" style="endArrow=none;dashed=1;html=1;rounded=0;entryX=0.5;entryY=1;entryDx=0;entryDy=0;strokeColor=#000000;" edge="1" parent="1" target="O6ehG71UC0-qLoCqbw2K-1">
          <mxGeometry width="50" height="50" relative="1" as="geometry">
            <mxPoint x="40" y="340" as="sourcePoint" />
            <mxPoint x="80" y="290" as="targetPoint" />
          </mxGeometry>
        </mxCell>
        <mxCell id="O6ehG71UC0-qLoCqbw2K-4" value="" style="endArrow=classic;html=1;rounded=0;" edge="1" parent="1">
          <mxGeometry width="50" height="50" relative="1" as="geometry">
            <mxPoint x="60" y="240" as="sourcePoint" />
            <mxPoint x="120" y="240" as="targetPoint" />
          </mxGeometry>
        </mxCell>
        <mxCell id="O6ehG71UC0-qLoCqbw2K-5" value="Send message to User about Status" style="rounded=1;whiteSpace=wrap;html=1;" vertex="1" parent="1">
          <mxGeometry x="720" y="210" width="117" height="60" as="geometry" />
        </mxCell>
        <mxCell id="O6ehG71UC0-qLoCqbw2K-6" value="finalizing" style="rounded=1;whiteSpace=wrap;html=1;" vertex="1" parent="1">
          <mxGeometry x="553" y="210" width="117" height="60" as="geometry" />
        </mxCell>
        <mxCell id="O6ehG71UC0-qLoCqbw2K-7" value="" style="endArrow=none;html=1;rounded=0;exitX=0.417;exitY=0.089;exitDx=0;exitDy=0;exitPerimeter=0;" edge="1" parent="1" source="O6ehG71UC0-qLoCqbw2K-15">
          <mxGeometry width="50" height="50" relative="1" as="geometry">
            <mxPoint x="330" y="210" as="sourcePoint" />
            <mxPoint x="330" y="160" as="targetPoint" />
          </mxGeometry>
        </mxCell>
        <mxCell id="O6ehG71UC0-qLoCqbw2K-8" value="" style="endArrow=none;html=1;rounded=0;" edge="1" parent="1">
          <mxGeometry width="50" height="50" relative="1" as="geometry">
            <mxPoint x="329.5" y="320" as="sourcePoint" />
            <mxPoint x="329.5" y="270" as="targetPoint" />
          </mxGeometry>
        </mxCell>
        <mxCell id="O6ehG71UC0-qLoCqbw2K-9" value="" style="endArrow=classic;html=1;rounded=0;" edge="1" parent="1">
          <mxGeometry width="50" height="50" relative="1" as="geometry">
            <mxPoint x="330" y="160" as="sourcePoint" />
            <mxPoint x="420" y="160" as="targetPoint" />
          </mxGeometry>
        </mxCell>
        <mxCell id="O6ehG71UC0-qLoCqbw2K-10" value="" style="endArrow=classic;html=1;rounded=0;" edge="1" parent="1">
          <mxGeometry width="50" height="50" relative="1" as="geometry">
            <mxPoint x="330" y="320" as="sourcePoint" />
            <mxPoint x="420" y="320" as="targetPoint" />
          </mxGeometry>
        </mxCell>
        <mxCell id="O6ehG71UC0-qLoCqbw2K-11" value="approved" style="rounded=1;whiteSpace=wrap;html=1;" vertex="1" parent="1">
          <mxGeometry x="420" y="130" width="117" height="60" as="geometry" />
        </mxCell>
        <mxCell id="O6ehG71UC0-qLoCqbw2K-12" value="rejected" style="rounded=1;whiteSpace=wrap;html=1;" vertex="1" parent="1">
          <mxGeometry x="420" y="290" width="117" height="60" as="geometry" />
        </mxCell>
        <mxCell id="O6ehG71UC0-qLoCqbw2K-13" value="" style="endArrow=none;html=1;rounded=0;" edge="1" parent="1">
          <mxGeometry width="50" height="50" relative="1" as="geometry">
            <mxPoint x="540" y="319.5" as="sourcePoint" />
            <mxPoint x="630" y="320" as="targetPoint" />
          </mxGeometry>
        </mxCell>
        <mxCell id="O6ehG71UC0-qLoCqbw2K-14" value="" style="endArrow=none;html=1;rounded=0;" edge="1" parent="1">
          <mxGeometry width="50" height="50" relative="1" as="geometry">
            <mxPoint x="540" y="159.5" as="sourcePoint" />
            <mxPoint x="620" y="159.5" as="targetPoint" />
          </mxGeometry>
        </mxCell>
        <mxCell id="O6ehG71UC0-qLoCqbw2K-15" value="pending" style="rounded=1;whiteSpace=wrap;html=1;" vertex="1" parent="1">
          <mxGeometry x="280" y="220" width="117" height="60" as="geometry" />
        </mxCell>
        <mxCell id="O6ehG71UC0-qLoCqbw2K-16" value="" style="endArrow=classic;html=1;rounded=0;entryX=0.569;entryY=-0.011;entryDx=0;entryDy=0;entryPerimeter=0;" edge="1" parent="1" target="O6ehG71UC0-qLoCqbw2K-6">
          <mxGeometry width="50" height="50" relative="1" as="geometry">
            <mxPoint x="620" y="160" as="sourcePoint" />
            <mxPoint x="670" y="110" as="targetPoint" />
          </mxGeometry>
        </mxCell>
        <mxCell id="O6ehG71UC0-qLoCqbw2K-17" value="" style="endArrow=classic;html=1;rounded=0;entryX=0.647;entryY=0.989;entryDx=0;entryDy=0;entryPerimeter=0;" edge="1" parent="1" target="O6ehG71UC0-qLoCqbw2K-6">
          <mxGeometry width="50" height="50" relative="1" as="geometry">
            <mxPoint x="630" y="320" as="sourcePoint" />
            <mxPoint x="680" y="270" as="targetPoint" />
          </mxGeometry>
        </mxCell>
        <mxCell id="O6ehG71UC0-qLoCqbw2K-18" value="" style="endArrow=classic;html=1;rounded=0;entryX=0.006;entryY=0.4;entryDx=0;entryDy=0;entryPerimeter=0;exitX=1;exitY=0.25;exitDx=0;exitDy=0;" edge="1" parent="1">
          <mxGeometry width="50" height="50" relative="1" as="geometry">
            <mxPoint x="240" y="240" as="sourcePoint" />
            <mxPoint x="280.72" y="239" as="targetPoint" />
          </mxGeometry>
        </mxCell>
        <mxCell id="O6ehG71UC0-qLoCqbw2K-19" value="" style="endArrow=classic;html=1;rounded=0;exitX=1;exitY=0.25;exitDx=0;exitDy=0;" edge="1" parent="1" target="O6ehG71UC0-qLoCqbw2K-20">
          <mxGeometry width="50" height="50" relative="1" as="geometry">
            <mxPoint x="840" y="240.5" as="sourcePoint" />
            <mxPoint x="880.72" y="239.5" as="targetPoint" />
          </mxGeometry>
        </mxCell>
        <mxCell id="O6ehG71UC0-qLoCqbw2K-20" value="" style="ellipse;whiteSpace=wrap;html=1;aspect=fixed;fillColor=#0d0d0d;" vertex="1" parent="1">
          <mxGeometry x="890" y="220" width="37" height="40" as="geometry" />
        </mxCell>
        <mxCell id="O6ehG71UC0-qLoCqbw2K-21" value="Final &lt;br&gt;state" style="shape=note;whiteSpace=wrap;html=1;backgroundOutline=1;darkOpacity=0.05;" vertex="1" parent="1">
          <mxGeometry x="870" y="340" width="87" height="60" as="geometry" />
        </mxCell>
        <mxCell id="O6ehG71UC0-qLoCqbw2K-22" value="" style="endArrow=none;dashed=1;html=1;rounded=0;entryX=0.5;entryY=1;entryDx=0;entryDy=0;strokeColor=#000000;" edge="1" parent="1" target="O6ehG71UC0-qLoCqbw2K-20">
          <mxGeometry width="50" height="50" relative="1" as="geometry">
            <mxPoint x="910" y="340" as="sourcePoint" />
            <mxPoint x="950" y="290" as="targetPoint" />
          </mxGeometry>
        </mxCell>
        <mxCell id="O6ehG71UC0-qLoCqbw2K-23" value="approve if information is unique" style="text;html=1;strokeColor=none;fillColor=none;align=center;verticalAlign=middle;whiteSpace=wrap;rounded=0;" vertex="1" parent="1">
          <mxGeometry x="340" y="120" width="57" height="30" as="geometry" />
        </mxCell>
        <mxCell id="O6ehG71UC0-qLoCqbw2K-24" value="complete" style="text;html=1;strokeColor=none;fillColor=none;align=center;verticalAlign=middle;whiteSpace=wrap;rounded=0;" vertex="1" parent="1">
          <mxGeometry x="570" y="340" width="57" height="30" as="geometry" />
        </mxCell>
        <mxCell id="O6ehG71UC0-qLoCqbw2K-25" value="reject if information is duplicated or invalid" style="text;html=1;strokeColor=none;fillColor=none;align=center;verticalAlign=middle;whiteSpace=wrap;rounded=0;" vertex="1" parent="1">
          <mxGeometry x="350" y="340" width="57" height="30" as="geometry" />
        </mxCell>
        <mxCell id="O6ehG71UC0-qLoCqbw2K-26" value="complete" style="text;html=1;strokeColor=none;fillColor=none;align=center;verticalAlign=middle;whiteSpace=wrap;rounded=0;" vertex="1" parent="1">
          <mxGeometry x="560" y="120" width="57" height="30" as="geometry" />
        </mxCell>
        <mxCell id="O6ehG71UC0-qLoCqbw2K-27" value="Connecting User Info to EcoPower" style="rounded=1;whiteSpace=wrap;html=1;" vertex="1" parent="1">
          <mxGeometry x="130" y="220" width="117" height="60" as="geometry" />
        </mxCell>
        <mxCell id="O6ehG71UC0-qLoCqbw2K-28" value="" style="endArrow=classic;html=1;rounded=0;entryX=0;entryY=0.5;entryDx=0;entryDy=0;exitX=1;exitY=0.25;exitDx=0;exitDy=0;" edge="1" parent="1" target="O6ehG71UC0-qLoCqbw2K-5">
          <mxGeometry width="50" height="50" relative="1" as="geometry">
            <mxPoint x="670" y="240.5" as="sourcePoint" />
            <mxPoint x="710.72" y="239.5" as="targetPoint" />
          </mxGeometry>
        </mxCell>
        <mxCell id="O6ehG71UC0-qLoCqbw2K-29" value="User Information is entered" style="text;html=1;strokeColor=none;fillColor=none;align=center;verticalAlign=middle;whiteSpace=wrap;rounded=0;" vertex="1" parent="1">
          <mxGeometry x="40" y="150" width="90" height="75" as="geometry" />
        </mxCell>
        <mxCell id="O6ehG71UC0-qLoCqbw2K-30" value="Adding information to the database" style="text;html=1;strokeColor=none;fillColor=none;align=center;verticalAlign=middle;whiteSpace=wrap;rounded=0;" vertex="1" parent="1">
          <mxGeometry x="220" y="150" width="90" height="75" as="geometry" />
        </mxCell>
        <mxCell id="O6ehG71UC0-qLoCqbw2K-31" value="Database Checking Process is completed" style="text;html=1;strokeColor=none;fillColor=none;align=center;verticalAlign=middle;whiteSpace=wrap;rounded=0;" vertex="1" parent="1">
          <mxGeometry x="650" y="145" width="90" height="75" as="geometry" />
        </mxCell>
        <mxCell id="O6ehG71UC0-qLoCqbw2K-32" value="Adding User procedure is completed" style="text;html=1;strokeColor=none;fillColor=none;align=center;verticalAlign=middle;whiteSpace=wrap;rounded=0;" vertex="1" parent="1">
          <mxGeometry x="820" y="145" width="90" height="75" as="geometry" />
        </mxCell>
      </root>
    </mxGraphModel>
  </diagram>
</mxfile>
